<svg id="Group_63" data-name="Group 63" xmlns="http://www.w3.org/2000/svg" viewBox="0 0 54 50">
  <defs>
    <style>
      .cls-1 {
        fill: #fff;
      }
    </style>
  </defs>
  <g id="Group_60" data-name="Group 60">
    <g id="Group_59" data-name="Group 59">
      <path id="Path_17" data-name="Path 17" class="cls-1" d="M54,35.821V32.654H51.079V21.611A7.924,7.924,0,0,0,53.958,15.5V12.437L47.06,0H6.95L0,12.437V15.5a7.908,7.908,0,0,0,2.879,6.113V32.654H0v3.167H2.879V46.833H0V50H54V46.833H51.079V35.821ZM45.193,3.167l5.453,9.818H41.133L39.076,3.167Zm-16.632,0h7.277l2.057,9.818H28.561V3.167Zm9.492,12.986a4.77,4.77,0,0,1-9.45,0Zm-11.074,4.1a7.916,7.916,0,0,0,12.7,0,7.753,7.753,0,0,0,1.487,1.51v10.9H12.836V21.738A7.98,7.98,0,0,0,14.28,20.26a7.908,7.908,0,0,0,12.7-.011Zm-7.8-17.082h6.233v9.818H16.179Zm6.18,12.986a4.77,4.77,0,0,1-9.45,0ZM8.807,3.167h7.056l-3,9.818H3.322Zm-5.6,12.986h9.45a4.77,4.77,0,0,1-9.45,0Zm6.465,7.095v9.417H6.043V23.216a7.9,7.9,0,0,0,1.888.232A9.342,9.342,0,0,0,9.671,23.247Zm38.243,23.6H6.043V35.821H47.914V46.843Zm0-14.189H44.329V23.247a8.2,8.2,0,0,0,1.7.19,7.97,7.97,0,0,0,1.888-.232v9.449ZM46.037,20.27a4.786,4.786,0,0,1-4.725-4.117h9.45A4.786,4.786,0,0,1,46.037,20.27Z"/>
    </g>
  </g>
  <g id="Group_62" data-name="Group 62" transform="translate(19.691 39.696)">
    <g id="Group_61" data-name="Group 61">
      <rect id="Rectangle_102" data-name="Rectangle 102" class="cls-1" width="14.629" height="3.167"/>
    </g>
  </g>
</svg>
