<svg id="Group_57" data-name="Group 57" xmlns="http://www.w3.org/2000/svg" viewBox="0 0 58 48">
  <defs>
    <style>
      .cls-1 {
        fill: #fff;
      }
    </style>
  </defs>
  <path id="Path_16" data-name="Path 16" class="cls-1" d="M54.131,9.891v7.24h.975v1.293H53.318v-2H49.71V0H8.323V16.42H4.682v2H2.893V17.131h.975V9.891H0v7.24H.975v3.232H4.682v20.3H7.933V48h9.688V40.663H40.379V48h9.688V40.663h3.251v-20.3h3.706V17.131H58V9.891ZM12.777,28.541a3.362,3.362,0,1,1,3.381-3.362A3.369,3.369,0,0,1,12.777,28.541Zm9.233,6.853H20.059V21.689H22.01Zm4.942,0H25V21.689h1.951Zm4.974,0H29.975V21.689h1.951Zm.813-18.941H12.192V3.846H45.841V16.42h-.975a4.355,4.355,0,0,0,.065-.646,6.112,6.112,0,0,0-12.224,0A2.382,2.382,0,0,0,32.739,16.453ZM36.9,35.394H34.95V21.689H36.9ZM34.657,16.453a4.356,4.356,0,0,1-.065-.646,4.194,4.194,0,0,1,8.388,0,4.356,4.356,0,0,1-.065.646ZM45.223,28.541A3.362,3.362,0,1,1,48.6,25.18,3.369,3.369,0,0,1,45.223,28.541Z"/>
</svg>
