<svg id="Group_46" data-name="Group 46" xmlns="http://www.w3.org/2000/svg" viewBox="0 0 62 48">
  <defs>
    <style>
      .cls-1 {
        fill: #fff;
      }
    </style>
  </defs>
  <path id="Path_8" data-name="Path 8" class="cls-1" d="M120.388,47.964a13.766,13.766,0,0,0,13.788-13.718V27.4a3.45,3.45,0,0,0-3.455-3.437h-6.878a3.438,3.438,0,1,0,0,6.875H127.3v3.437a6.878,6.878,0,0,1-13.756,0V13.718a6.878,6.878,0,0,1,13.756,0,3.439,3.439,0,0,0,6.878,0,13.788,13.788,0,0,0-27.576,0v20.56A13.781,13.781,0,0,0,120.388,47.964Z" transform="translate(-72.176 0.004)"/>
  <path id="Path_9" data-name="Path 9" class="cls-1" d="M3.449,34.27H20.659V44.55a3.455,3.455,0,0,0,6.91,0V23.989a3.455,3.455,0,0,0-6.91-.032v3.437H9L20.3,4.939a3.441,3.441,0,0,0-6.167-3.052L.349,29.29a3.455,3.455,0,0,0,3.1,4.979Z" transform="translate(0.009 0.013)"/>
</svg>
