<svg xmlns="http://www.w3.org/2000/svg" viewBox="0 0 27 27">
  <defs>
    <style>
      .cls-1 {
        fill: none;
        stroke: #fff;
      }

      .cls-2 {
        fill: #dc4e41;
      }

      .cls-3 {
        fill: #fff;
      }
    </style>
  </defs>
  <g id="Group_72" data-name="Group 72" transform="translate(-246.5 -1814.5)">
    <g id="Group_67" data-name="Group 67" transform="translate(247 1815)">
      <circle id="XMLID_30_" class="cls-1" cx="13" cy="13" r="13" transform="translate(0)"/>
    </g>
    <g id="Group_69" data-name="Group 69" transform="translate(251.523 1823.214)">
      <path id="Path_20" data-name="Path 20" class="cls-2" d="M19.52,40.813a5.357,5.357,0,0,0,3.614,5.067,5.287,5.287,0,0,0,5.779-1.541A6.059,6.059,0,0,0,30,40.054c-1.71-.015-3.419-.01-5.126-.008,0,.609,0,1.216,0,1.825,1.024.028,2.047.015,3.071.036a2.961,2.961,0,0,1-1.74,2.029,3.386,3.386,0,1,1-2.28-6.37,3.765,3.765,0,0,1,3.169.619c.476-.445.921-.921,1.359-1.4a5.389,5.389,0,0,0-8.932,4.031Z" transform="translate(-19.517 -35.446)"/>
      <path id="Path_21" data-name="Path 21" class="cls-2" d="M73.985,48.668c-.005.509-.01,1.021-.013,1.53-.512.005-1.021.008-1.53.01v1.525c.509,0,1.021.005,1.53.01.005.509.005,1.018.01,1.53.507,0,1.016,0,1.525,0,0-.512.005-1.021.01-1.533l1.53-.008V50.209c-.509,0-1.021-.005-1.53-.01,0-.509-.008-1.021-.01-1.53Z" transform="translate(-60.177 -45.604)"/>
      <g id="Group_68" data-name="Group 68">
        <path id="Path_22" data-name="Path 22" class="cls-3" d="M19.52,40.813a5.388,5.388,0,0,1,8.932-4.031c-.438.481-.883.957-1.359,1.4a3.765,3.765,0,0,0-3.169-.619,3.386,3.386,0,1,0,2.28,6.37,2.962,2.962,0,0,0,1.74-2.029c-1.024-.02-2.047-.008-3.071-.036,0-.609-.005-1.216,0-1.825,1.707,0,3.417-.008,5.126.008a6.057,6.057,0,0,1-1.085,4.287,5.287,5.287,0,0,1-5.779,1.541A5.357,5.357,0,0,1,19.52,40.813Z" transform="translate(-19.517 -35.445)"/>
        <path id="Path_23" data-name="Path 23" class="cls-3" d="M73.985,48.668h1.523c0,.509.008,1.021.01,1.53.509.005,1.021.008,1.53.01v1.525l-1.53.008c-.005.512-.008,1.021-.01,1.533-.509,0-1.019,0-1.525,0,0-.512,0-1.021-.01-1.53-.509-.005-1.021-.008-1.53-.01V50.208q.764,0,1.53-.01C73.975,49.689,73.98,49.177,73.985,48.668Z" transform="translate(-60.177 -45.604)"/>
      </g>
    </g>
  </g>
</svg>
