<svg xmlns="http://www.w3.org/2000/svg" viewBox="0 0 27 27">
  <defs>
    <style>
      .cls-1 {
        fill: none;
        stroke: #fff;
      }

      .cls-2 {
        fill: #fff;
      }
    </style>
  </defs>
  <g id="Group_76" data-name="Group 76" transform="translate(-207.5 -1940.5)">
    <circle id="Ellipse_3" data-name="Ellipse 3" class="cls-1" cx="13" cy="13" r="13" transform="translate(208 1941)"/>
    <g id="Group_70" data-name="Group 70" transform="translate(213.817 1948.885)">
      <path id="Path_27" data-name="Path 27" class="cls-2" d="M40.249,35.485a6.2,6.2,0,0,1-1.785.489,3.116,3.116,0,0,0,1.367-1.719,6.22,6.22,0,0,1-1.973.754,3.11,3.11,0,0,0-5.3,2.835,8.821,8.821,0,0,1-6.4-3.247,3.111,3.111,0,0,0,.961,4.149,3.086,3.086,0,0,1-1.407-.389c0,.013,0,.026,0,.039A3.109,3.109,0,0,0,28.2,41.442a3.12,3.12,0,0,1-1.4.054,3.111,3.111,0,0,0,2.9,2.158,6.273,6.273,0,0,1-4.6,1.287,8.837,8.837,0,0,0,13.6-7.445c0-.135,0-.269-.009-.4a6.3,6.3,0,0,0,1.551-1.608Z" transform="translate(-25.103 -34.028)"/>
    </g>
  </g>
</svg>
