<svg id="forest" xmlns="http://www.w3.org/2000/svg" viewBox="0 0 40 40">
  <defs>
    <style>
      .cls-1 {
        fill: #fff;
      }
    </style>
  </defs>
  <path id="Path_1" data-name="Path 1" class="cls-1" d="M40,18.868A6.924,6.924,0,0,0,33.917,12a7.186,7.186,0,0,0-13.025-.933c-3.13-3.554-5.359-9.948-5.382-10.016a1.562,1.562,0,0,0-2.968.042C12.515,1.18,9.877,9.466,5,13.041a1.562,1.562,0,0,0,.308,2.7,13.421,13.421,0,0,0,2.656.842c-1.151,2.4-4.067,4.636-5.273,5.394a1.563,1.563,0,0,0,.259,2.78c.132.052.292.123.477.2a16.268,16.268,0,0,0,2,.765,12.67,12.67,0,0,1-2.1,3.171A18.072,18.072,0,0,1,.654,31.386,1.563,1.563,0,0,0,.7,33.962c.165.109,3.89,2.5,11.406,2.8v1.671a1.563,1.563,0,0,0,3.125,0v-3.2a1.562,1.562,0,0,0-1.563-1.563,27.46,27.46,0,0,1-9.237-1.419c.393-.379.816-.815,1.242-1.3a15.139,15.139,0,0,0,2.864-4.6c.516.062,1.077.112,1.687.146l.088,0a1.562,1.562,0,0,0,.085-3.123,17.835,17.835,0,0,1-3.67-.538c.259-.22.527-.457.8-.71a13.206,13.206,0,0,0,3.627-5.1h.025a1.563,1.563,0,0,0,.139-3.119c-.917-.083-1.669-.192-2.288-.31a29.687,29.687,0,0,0,5.024-7.847,28.681,28.681,0,0,0,5.22,8.146A7.422,7.422,0,0,0,15.9,25.99a7.384,7.384,0,0,0,6.8,10.261H25.86v2.188a1.563,1.563,0,0,0,3.125,0V31.395a5.667,5.667,0,0,0,4.883-5.456,1.563,1.563,0,0,0-3.125,0,2.467,2.467,0,0,1-1.758,2.233V19.767a1.563,1.563,0,0,0-3.125,0V24.75a3.678,3.678,0,0,1-1.408-.717,1.706,1.706,0,0,1-.7-1.3,1.563,1.563,0,0,0-3.125,0,4.811,4.811,0,0,0,1.809,3.683,6.755,6.755,0,0,0,3.426,1.506v5.2H22.7a4.257,4.257,0,0,1-3.554-6.6,1.562,1.562,0,0,0-.351-2.1,4.3,4.3,0,0,1,2.616-7.7l.1,0,.041,0a1.563,1.563,0,0,0,1.6-1.735,4.056,4.056,0,0,1,4.036-4.519,4.055,4.055,0,0,1,4,3.337,1.563,1.563,0,0,0,1.643,1.282c.1-.007.186-.01.259-.01a3.788,3.788,0,0,1,2.662,6.484,1.562,1.562,0,0,0-.128,2.079,5.8,5.8,0,0,1,1.255,3.624,6.2,6.2,0,0,1-3.086,5.4,1.563,1.563,0,0,0,1.47,2.758,8.829,8.829,0,0,0,3.374-3.263A9.49,9.49,0,0,0,40,27.267a8.89,8.89,0,0,0-1.2-4.5A6.862,6.862,0,0,0,40,18.868Zm0,0" transform="translate(0 -0.001)"/>
</svg>
