<svg id="guitar" xmlns="http://www.w3.org/2000/svg" viewBox="0 0 40 40">
  <defs>
    <style>
      .cls-1 {
        fill: #fff;
      }
    </style>
  </defs>
  <path id="Path_2" data-name="Path 2" class="cls-1" d="M10.988,24.837,15.6,29.523a1.562,1.562,0,0,1-2.228,2.191L8.76,27.027a1.562,1.562,0,1,1,2.228-2.19Zm28.856-19.8L37.193,7.693a3.057,3.057,0,0,1-2.652.86l-.061-.01c-.078-.013-.156-.029-.232-.047L27.873,14.87c.191.208.413.438.644.678a17.536,17.536,0,0,1,2.943,3.7,4.994,4.994,0,0,1-.106,5.48,5.921,5.921,0,0,1-4,2.352,3.159,3.159,0,0,0-1.364.494,1.562,1.562,0,1,1-2.252-2.166,5.39,5.39,0,0,1,2.916-1.373c1.049-.241,1.665-.41,2.117-1.072.888-1.3-.2-2.845-2.511-5.25-.211-.219-.413-.43-.6-.634L23.046,19.7a4.693,4.693,0,1,1-2.169-2.25l2.576-2.576c-.213-.2-.434-.409-.663-.63-2.405-2.313-3.954-3.4-5.25-2.511-.663.453-.832,1.069-1.073,2.118a5.407,5.407,0,0,1-1.362,2.9,11.1,11.1,0,0,1-5.729,2.769A8.07,8.07,0,0,0,5.2,21.415,4.939,4.939,0,0,0,3.624,25c.015,3.679,1.053,6.5,3.172,8.617A12.213,12.213,0,0,0,15.5,36.876h.02a4.945,4.945,0,0,0,3.566-1.58,5.991,5.991,0,0,0,1.543-2.769,1.562,1.562,0,0,1,3,.882A9.2,9.2,0,0,1,21.3,37.5,8.066,8.066,0,0,1,15.521,40h-.033a15.261,15.261,0,0,1-10.9-4.172C1.893,33.134.518,29.5.5,25.014A8.06,8.06,0,0,1,3,19.206a10.921,10.921,0,0,1,5.639-2.72,8.214,8.214,0,0,0,4.271-1.953l.022-.021a3.158,3.158,0,0,0,.494-1.364,5.921,5.921,0,0,1,2.354-4,5,5,0,0,1,5.48-.105,17.539,17.539,0,0,1,3.7,2.943c.252.242.493.474.709.671l6.347-6.346A3.081,3.081,0,0,1,32.8,3.34L35.479.656a2.229,2.229,0,0,1,3.159,0l1.207,1.211A2.244,2.244,0,0,1,39.845,5.034Zm-19.5,16.6A1.563,1.563,0,1,0,18.781,23.2,1.564,1.564,0,0,0,20.343,21.636Zm0,0" transform="translate(-0.499 0)"/>
</svg>
