<svg id="helmet" xmlns="http://www.w3.org/2000/svg" viewBox="0 0 40 40">
  <defs>
    <style>
      .cls-1 {
        fill: #fff;
      }
    </style>
  </defs>
  <path id="Path_3" data-name="Path 3" class="cls-1" d="M40,18.646a19.776,19.776,0,0,0-2.35-8.138,1.564,1.564,0,0,0-2.753,1.485,16.646,16.646,0,0,1,1.787,5.195H26.356a1.564,1.564,0,0,0-1.288.676L23.11,20.7H20c-.037,0-.074,0-.111,0A8.787,8.787,0,0,0,16.51,21.76a6.8,6.8,0,0,0-3.528,6.209v2.109H6.257a3.13,3.13,0,0,1-3.128-3.125v-6.8a17,17,0,0,1,16.8-17.025h.093A16.9,16.9,0,0,1,30.973,7.151,1.563,1.563,0,1,0,33,4.773,20.03,20.03,0,0,0,20.02,0h-.11a19.813,19.813,0,0,0-14.1,5.969A20.1,20.1,0,0,0,0,20.15v6.8A6.26,6.26,0,0,0,6.257,33.2h7.98a35.007,35.007,0,0,0,10.757,2.914c.071.838.111,1.621.111,2.321a1.564,1.564,0,0,0,3.128,0c0-4.728-1.486-11.8-2.6-15.887l1.543-2.238H38.436A1.564,1.564,0,0,0,40,18.646ZM16.111,30.59V27.969a3.656,3.656,0,0,1,1.849-3.438,5.824,5.824,0,0,1,2.116-.7H22.74a86.183,86.183,0,0,1,1.878,9.117A32.232,32.232,0,0,1,16.111,30.59Zm2.214-22.8h0a1.562,1.562,0,0,1-1.143,1.721,10.707,10.707,0,0,0-1.66.6,1.564,1.564,0,0,1-1.978-.6h0A1.557,1.557,0,0,1,14.21,7.27a13.762,13.762,0,0,1,2.177-.781A1.56,1.56,0,0,1,18.325,7.791Zm-6.805,3.271h0a1.56,1.56,0,0,1,.076,2.065,10.766,10.766,0,0,0-1,1.45A1.564,1.564,0,1,1,7.889,13a13.826,13.826,0,0,1,1.3-1.871A1.561,1.561,0,0,1,11.519,11.062ZM24.917,6.9a1.563,1.563,0,1,1-1.086,2.931,10.71,10.71,0,0,0-1.7-.482,1.562,1.562,0,0,1-1.257-1.64h0a1.559,1.559,0,0,1,1.845-1.429A13.83,13.83,0,0,1,24.917,6.9Zm0,0"/>
</svg>
