<svg id="tent" xmlns="http://www.w3.org/2000/svg" viewBox="0 0 40 40">
  <defs>
    <style>
      .cls-1 {
        fill: #fff;
      }
    </style>
  </defs>
  <path id="Path_5" data-name="Path 5" class="cls-1" d="M39.748,31.415c-.02-.032-5.148-8.077-5.664-8.9a1.562,1.562,0,1,0-2.648,1.659c.419.669.827,1.317,1.219,1.938l-1.637,9.468a1.559,1.559,0,0,1-1.54,1.3H27.826L21.418,23.016a1.562,1.562,0,0,0-2.836,0L12.174,36.875H10.506a1.561,1.561,0,0,1-1.538-1.287L7.281,26.164C11.2,19.973,16.785,10.958,20,4.878c1.716,3.249,4.289,7.681,7.681,13.232a1.563,1.563,0,0,0,2.667-1.63C25.975,9.326,23,4.083,21.491.9c-.007-.015-.015-.03-.023-.045S21.453.82,21.444.805C21.423.767,21.4.731,21.378.7L21.359.669C21.339.64,21.318.612,21.3.584L21.27.553Q21.235.512,21.2.473l-.019-.02q-.047-.047-.1-.09L21.052.342C21.026.321,21,.3,20.972.282L20.935.256c-.03-.02-.06-.038-.091-.055l-.037-.02q-.049-.026-.1-.049l-.05-.02L20.576.082,20.528.067C20.487.054,20.446.044,20.4.034L20.364.027q-.051-.01-.1-.016l-.043,0C20.173,0,20.125,0,20.078,0h-.156c-.048,0-.095,0-.141.007l-.042,0c-.034,0-.069.009-.1.016L19.6.034q-.063.013-.124.032l-.047.016-.081.03-.049.02c-.035.015-.069.031-.1.049L19.157.2c-.031.018-.062.036-.092.056l-.037.025c-.028.019-.055.04-.081.061l-.026.021c-.034.029-.068.059-.1.09L18.8.471c-.026.027-.051.054-.075.082L18.7.584c-.023.028-.044.057-.065.087l-.017.024c-.024.036-.046.073-.067.111-.008.014-.015.029-.022.043S18.516.88,18.509.9c-2.661,5.636-9.485,16.668-14,23.789a1.567,1.567,0,0,0-.354.559C1.9,28.806.3,31.262.253,31.335A1.564,1.564,0,0,0,0,32.188v6.25a1.562,1.562,0,1,0,3.125,0V32.651c.319-.492.9-1.4,1.677-2.6l1.09,6.087A4.683,4.683,0,0,0,10.506,40H29.478A4.678,4.678,0,0,0,34.1,36.111l1.05-6.074c.8,1.257,1.409,2.2,1.728,2.69v5.71a1.563,1.563,0,0,0,3.125,0V32.266A1.562,1.562,0,0,0,39.748,31.415ZM20,27.395l4.383,9.48H15.617Zm0,0"/>
</svg>
