<svg xmlns="http://www.w3.org/2000/svg" viewBox="0 0 32 32">
  <defs>
    <style>
      .cls-1 {
        fill: #fff;
      }
    </style>
  </defs>
  <path id="chevron-with-circle-right" class="cls-1" d="M18.307,16.64,14.47,12.463a.853.853,0,0,1,0-1.2.834.834,0,0,1,1.183,0l4.678,4.773a.85.85,0,0,1,0,1.195l-4.678,4.773a.83.83,0,0,1-1.183,0,.85.85,0,0,1,0-1.195l3.836-4.173ZM16.64.64a16,16,0,1,1-16,16,16,16,0,0,1,16-16Zm0,29.923A13.923,13.923,0,1,0,2.717,16.64,13.923,13.923,0,0,0,16.64,30.563Z" transform="translate(-0.64 -0.64)"/>
</svg>
